<svg xmlns="http://www.w3.org/2000/svg" width="16" height="16" fill="none" viewBox="0 0 16 16"><g fill="hsla(0,0%,100%,.79)" fill-rule="evenodd" clip-path="url(#download_icon_svg__a)" clip-rule="evenodd"><path d="M8 2a6 6 0 1 0 0 12A6 6 0 0 0 8 2ZM.667 8a7.333 7.333 0 1 1 14.666 0A7.333 7.333 0 0 1 .667 8Z"></path><path d="M4.862 7.529c.26-.26.682-.26.943 0L8 9.724l2.195-2.195a.667.667 0 1 1 .943.942l-2.667 2.667a.667.667 0 0 1-.942 0L4.862 8.471a.667.667 0 0 1 0-.942Z"></path><path d="M8 4.667c.368 0 .667.298.667.666v5.334a.667.667 0 1 1-1.334 0V5.333c0-.368.299-.666.667-.666Z"></path></g><defs><clipPath id="download_icon_svg__a"><path fill="#fff" d="M0 0h16v16H0z"></path></clipPath></defs></svg>